<?xml version="1.0" encoding="UTF-8" standalone="no"?>
<svg id="svg4666" xmlns:rdf="http://www.w3.org/1999/02/22-rdf-syntax-ns#" xmlns="http://www.w3.org/2000/svg" height="134.99mm" width="147.68mm" version="1.1" xmlns:cc="http://creativecommons.org/ns#" xmlns:xlink="http://www.w3.org/1999/xlink" viewBox="0 0 523.28259 478.30677" xmlns:dc="http://purl.org/dc/elements/1.1/">
<defs id="defs4668">
<filter id="filter8037-1" style="color-interpolation-filters:sRGB">
<feGaussianBlur id="feGaussianBlur8039-9" stdDeviation="2.8386866"/>
</filter>
<radialGradient id="radialGradient10979" gradientUnits="userSpaceOnUse" cy="917.47" cx="-303" gradientTransform="matrix(2.5695 1.0584 -.54877 1.3384 1416 -753.24)" r="49.294">
<stop id="stop7996-73" stop-color="#fa8a07" offset="0"/>
<stop id="stop7998-95" stop-color="#fca913" offset="1"/>
</radialGradient>
<linearGradient id="linearGradient10971" x1="293.15" gradientUnits="userSpaceOnUse" y1="292.97" gradientTransform="matrix(-1.4032 .86998 -.81015 -1.5068 792.73 455.71)" x2="209.35" y2="272.9">
<stop id="stop7351-2" stop-color="#faa10f" offset="0"/>
<stop id="stop7353-7" stop-color="#fabe28" offset="1"/>
</linearGradient>
<linearGradient id="linearGradient10977" x1="227.18" xlink:href="#linearGradient7297-2" gradientUnits="userSpaceOnUse" y1="274.77" gradientTransform="matrix(1.7351,0,0,1.7391,-29.808,-237.74)" x2="286.55" y2="279.93"/>
<linearGradient id="linearGradient7297-2">
<stop id="stop7299-2" stop-color="#faa10f" offset="0"/>
<stop id="stop7301-8" stop-color="#fa7a0f" offset="1"/>
</linearGradient>
<linearGradient id="linearGradient10975" x1="263.08" xlink:href="#linearGradient7297-2" gradientUnits="userSpaceOnUse" y1="319.73" gradientTransform="matrix(1.2269,1.2297,-1.2269,1.2297,395.8,-339.66)" x2="234.79" y2="262.23"/>
<linearGradient id="linearGradient10973" x1="253.41" gradientUnits="userSpaceOnUse" y1="290.74" gradientTransform="matrix(-1.4093,-1.4126,1.1895,-1.1922,286.09,839.17)" x2="215.27" y2="260.61">
<stop id="stop7365-5" stop-color="#faa10f" offset="0"/>
<stop id="stop7367-8" stop-color="#fcc028" offset="1"/>
</linearGradient>
<linearGradient id="linearGradient10969" x1="227.18" xlink:href="#linearGradient7297-2" gradientUnits="userSpaceOnUse" y1="274.77" gradientTransform="matrix(1.726 -.99882 .84106 1.4601 -281.52 44.317)" x2="286.55" y2="279.93"/>
<linearGradient id="linearGradient10967" x1="286.7" gradientUnits="userSpaceOnUse" y1="264.08" gradientTransform="matrix(.44908 -1.6799 1.676 .45011 -227.14 425.52)" x2="205.55" y2="260.44">
<stop id="stop7371-9" stop-color="#faa10f" offset="0"/>
<stop id="stop7373-7" stop-color="#fcbd25" offset="1"/>
</linearGradient>
<linearGradient id="linearGradient10965" x1="290.33" gradientUnits="userSpaceOnUse" y1="282.98" gradientTransform="matrix(-.51584 1.9296 -1.6248 -.43637 846.27 -68.674)" x2="196.92" y2="250.61">
<stop id="stop7345-6" stop-color="#faa10f" offset="0"/>
<stop id="stop7347-5" stop-color="#fcb927" offset="1"/>
</linearGradient>
<filter id="filter7748-2" style="color-interpolation-filters:sRGB">
<feGaussianBlur id="feGaussianBlur7750-3" stdDeviation="1.1350237"/>
</filter>
<filter id="filter7408-1" style="color-interpolation-filters:sRGB" height="1.154" width="1.2667" y="-.076981" x="-.13333">
<feGaussianBlur id="feGaussianBlur7410-3" stdDeviation="1.9720431"/>
</filter>
<filter id="filter8345-8" style="color-interpolation-filters:sRGB" height="1.6754" width="1.6737" y="-.33770" x="-.33686">
<feGaussianBlur id="feGaussianBlur8347-8" stdDeviation="6.0819605"/>
</filter>
<filter id="filter8341-3" style="color-interpolation-filters:sRGB" height="1.3864" width="2.1565" y="-.19321" x="-.57827">
<feGaussianBlur id="feGaussianBlur8343-00" stdDeviation="6.0819605"/>
</filter>
<filter id="filter8337-6" style="color-interpolation-filters:sRGB" height="1.3442" width="3.1476" y="-.17209" x="-1.0738">
<feGaussianBlur id="feGaussianBlur8339-6" stdDeviation="6.0819604"/>
</filter>
<filter id="filter8333-5" style="color-interpolation-filters:sRGB" height="2.2037" width="1.6403" y="-.60186" x="-.32016">
<feGaussianBlur id="feGaussianBlur8335-5" stdDeviation="8.5445358"/>
</filter>
<filter id="filter8329-9" style="color-interpolation-filters:sRGB" height="6.3571" width="1.5602" y="-2.6786" x="-.28008">
<feGaussianBlur id="feGaussianBlur8331-5" stdDeviation="8.5445359"/>
</filter>
<filter id="filter8075-67" style="color-interpolation-filters:sRGB" height="1.6074" width="1.3504" y="-.30368" x="-.17518">
<feGaussianBlur id="feGaussianBlur8077-8" stdDeviation="4.5815069"/>
</filter>
<filter id="filter8397-8" style="color-interpolation-filters:sRGB" height="1.465" width="1.305" y="-.23248" x="-.15252">
<feGaussianBlur id="feGaussianBlur8399-8" stdDeviation="4.7242542"/>
</filter>
<radialGradient id="radialGradient10963" gradientUnits="userSpaceOnUse" cy="197.23" cx="-206" gradientTransform="matrix(.22692 -3.9597 5.3759 .3063 -1219.6 -682.23)" r="8.8134">
<stop id="stop7726-8" stop-color="#fdca01" offset="0"/>
<stop id="stop7728-17" stop-color="#eee" offset="1"/>
</radialGradient>
<filter id="filter7732-0" style="color-interpolation-filters:sRGB" height="1.097" width="1.776" y="-0.0485" x="-.38799">
<feGaussianBlur id="feGaussianBlur7734-4" stdDeviation="1.7782668"/>
</filter>
<filter id="filter8425-1" style="color-interpolation-filters:sRGB" height="1.6636" width="1.5354" y="-.33181" x="-.26768">
<feGaussianBlur id="feGaussianBlur8427-8" stdDeviation="6.5613457"/>
</filter>
<filter id="filter8321-8" style="color-interpolation-filters:sRGB" height="1.6241" width="3.1186" y="-.31205" x="-1.0593">
<feGaussianBlur id="feGaussianBlur8323-4" stdDeviation="6.3234935"/>
</filter>
<filter id="filter7930-20" style="color-interpolation-filters:sRGB" height="1.0834" width="1.5366" y="-.041717" x="-.26832">
<feGaussianBlur id="feGaussianBlur7932-2" stdDeviation="0.77460522"/>
</filter>
<filter id="filter7926-0" style="color-interpolation-filters:sRGB" height="1.0695" width="1.4472" y="-.034764" x="-.2236">
<feGaussianBlur id="feGaussianBlur7928-36" stdDeviation="0.77460522"/>
</filter>
<filter id="filter7922-8" style="color-interpolation-filters:sRGB" height="1.0963" width="1.6708" y="-.048135" x="-.33540">
<feGaussianBlur id="feGaussianBlur7924-3" stdDeviation="0.77460522"/>
</filter>
<filter id="filter7966-0" style="color-interpolation-filters:sRGB" height="1.3781" width="1.2097" y="-.18903" x="-.10486">
<feGaussianBlur id="feGaussianBlur7968-3" stdDeviation="3.6546638"/>
</filter>
<filter id="filter7962-0" style="color-interpolation-filters:sRGB" height="1.3781" width="1.2097" y="-.18903" x="-.10486">
<feGaussianBlur id="feGaussianBlur7964-81" stdDeviation="3.6546638"/>
</filter>
<filter id="filter7958-7" style="color-interpolation-filters:sRGB" height="1.3781" width="1.2097" y="-.18903" x="-.10486">
<feGaussianBlur id="feGaussianBlur7960-3" stdDeviation="3.6546638"/>
</filter>
<filter id="filter8317-6" style="color-interpolation-filters:sRGB" height="3.8442" width="1.287" y="-1.4221" x="-.14352">
<feGaussianBlur id="feGaussianBlur8319-7" stdDeviation="14.688162"/>
</filter>
<filter id="filter8313-2" style="color-interpolation-filters:sRGB" height="3.8442" width="1.287" y="-1.4221" x="-.14352">
<feGaussianBlur id="feGaussianBlur8315-8" stdDeviation="14.688162"/>
</filter>
<filter id="filter8309-2" style="color-interpolation-filters:sRGB" height="3.8442" width="1.287" y="-1.4221" x="-.14352">
<feGaussianBlur id="feGaussianBlur8311-0" stdDeviation="14.688162"/>
</filter>
<filter id="filter8421-9" style="color-interpolation-filters:sRGB" height="1.6659" width="1.3694" y="-.33296" x="-.18471">
<feGaussianBlur id="feGaussianBlur8423-7" stdDeviation="6.4374446"/>
</filter>
<filter id="filter8417-9" style="color-interpolation-filters:sRGB" height="1.6659" width="1.3694" y="-.33296" x="-.18471">
<feGaussianBlur id="feGaussianBlur8419-5" stdDeviation="6.4374446"/>
</filter>
<filter id="filter8393-4" style="color-interpolation-filters:sRGB" height="1.6547" width="1.1872" y="-.32736" x="-.093604">
<feGaussianBlur id="feGaussianBlur8395-1" stdDeviation="5.6911493"/>
</filter>
<filter id="filter8389-0" style="color-interpolation-filters:sRGB" height="1.6547" width="1.1872" y="-.32736" x="-.093604">
<feGaussianBlur id="feGaussianBlur8391-2" stdDeviation="5.6911493"/>
</filter>
<filter id="filter8117-7" style="color-interpolation-filters:sRGB" height="1.9771" width="1.2794" y="-.48855" x="-.13969">
<feGaussianBlur id="feGaussianBlur8119-7" stdDeviation="8.493464"/>
</filter>
<filter id="filter8385-1" style="color-interpolation-filters:sRGB" height="1.7159" width="1.0953" y="-.35795" x="-.047630">
<feGaussianBlur id="feGaussianBlur8387-2" stdDeviation="4.5974543"/>
</filter>
<filter id="filter8071-2" style="color-interpolation-filters:sRGB" height="3.0529" width="1.1338" y="-1.0264" x="-.066912">
<feGaussianBlur id="feGaussianBlur8073-0" stdDeviation="7.8756664"/>
</filter>
<filter id="filter8067-4" style="color-interpolation-filters:sRGB" height="3.0529" width="1.1338" y="-1.0264" x="-.066912">
<feGaussianBlur id="feGaussianBlur8069-2" stdDeviation="7.8756664"/>
</filter>
<filter id="filter8063-3" style="color-interpolation-filters:sRGB" height="3.0529" width="1.1338" y="-1.0264" x="-.066912">
<feGaussianBlur id="feGaussianBlur8065-3" stdDeviation="7.8756664"/>
</filter>
<filter id="filter8305-5" style="color-interpolation-filters:sRGB" height="1.3496" width="1.2318" y="-.17481" x="-.11592">
<feGaussianBlur id="feGaussianBlur8307-7" stdDeviation="3.663958"/>
</filter>
<filter id="filter8006-2" style="color-interpolation-filters:sRGB">
<feGaussianBlur id="feGaussianBlur8008-4" stdDeviation="1.336398"/>
</filter>
<linearGradient id="linearGradient10961" y2="949.88" gradientUnits="userSpaceOnUse" y1="1002.9" x2="-224.77" x1="-218.77">
<stop id="stop8043-0" stop-color="#ff0" offset="0"/>
<stop id="stop8045-9" stop-color="#f44800" offset="1"/>
</linearGradient>
<filter id="filter8301-0" style="color-interpolation-filters:sRGB" height="5.8068" width="5.39" y="-2.4034" x="-2.195">
<feGaussianBlur id="feGaussianBlur8303-8" stdDeviation="3.663958"/>
</filter>
<filter id="filter8297-3" style="color-interpolation-filters:sRGB" height="2.9758" width="2.8045" y="-.98788" x="-.90223">
<feGaussianBlur id="feGaussianBlur8299-1" stdDeviation="3.663958"/>
</filter>
<filter id="filter8293-7" style="color-interpolation-filters:sRGB" height="2.8045" width="2.9758" y="-.90223" x="-.98788">
<feGaussianBlur id="feGaussianBlur8295-3" stdDeviation="3.663958"/>
</filter>
<filter id="filter8059-5" style="color-interpolation-filters:sRGB" height="125.57" width="1.3726" y="-62.285" x="-.18629">
<feGaussianBlur id="feGaussianBlur8061-8" stdDeviation="1.9645829"/>
</filter>
<linearGradient id="linearGradient4414" y2="426.05" xlink:href="#linearGradient8089-1" gradientUnits="userSpaceOnUse" x2="-6.9916" y1="425.58" x1="-.98872"/>
<linearGradient id="linearGradient8089-1">
<stop id="stop8091-7" stop-color="#fff" offset="0"/>
<stop id="stop8093-2" stop-color="#fff" stop-opacity="0" offset="1"/>
</linearGradient>
<filter id="filter8101-85" style="color-interpolation-filters:sRGB" height="1.1376" width="1.2181" y="-.068794" x="-.10904">
<feGaussianBlur id="feGaussianBlur8103-8" stdDeviation="0.37067021"/>
</filter>
<linearGradient id="linearGradient4416" y2="425.78" xlink:href="#linearGradient8089-1" gradientUnits="userSpaceOnUse" x2=".87465" y1="426.66" x1="-2.7321"/>
<filter id="filter8289-3" style="color-interpolation-filters:sRGB" height="1.3816" width="1.6343" y="-.1908" x="-.31714">
<feGaussianBlur id="feGaussianBlur8291-7" stdDeviation="1.0545477"/>
</filter>
<filter id="filter8325-3" style="color-interpolation-filters:sRGB" height="1.9771" width="1.6514" y="-.48853" x="-.32569">
<feGaussianBlur id="feGaussianBlur8327-7" stdDeviation="3.663958"/>
</filter>
</defs>
<g id="layer1" transform="translate(-29.787 -250.35)">
<g id="g4486" transform="translate(-9.1062 269.18)">
<g fill="#fa6707">
<use id="use14284" opacity=".87829" xlink:href="#path13344" transform="matrix(.2305 0 0 .2305 319.99 312.64)" height="1052.3622" width="744.09448" y="0" x="0"/>
<use id="use14588" opacity=".87829" xlink:href="#path13328" transform="matrix(.2305 0 0 .2305 322.46 314.19)" height="1052.3622" width="744.09448" y="0" x="0"/>
<use id="use14608" opacity=".87829" xlink:href="#path13330" transform="matrix(.2305 0 0 .2305 324 310.82)" height="1052.3622" width="744.09448" y="0" x="0"/>
<use id="use14614" opacity=".87829" xlink:href="#path13446" transform="matrix(.2305 0 0 .2305 320.42 316.54)" height="1052.3622" width="744.09448" y="0" x="0"/>
<use id="use14624" opacity=".87829" xlink:href="#path13338" transform="matrix(.2305 0 0 .2305 323.37 312.78)" height="1052.3622" width="744.09448" y="0" x="0"/>
<use id="use14636" opacity=".87829" xlink:href="#path13346" transform="matrix(.2305 0 0 .2305 321.68 315.39)" height="1052.3622" width="744.09448" y="0" x="0"/>
<use id="use14654" opacity=".87829" xlink:href="#path13348" transform="matrix(.2305 0 0 .2305 322.16 313.96)" height="1052.3622" width="744.09448" y="0" x="0"/>
<use id="use14662" opacity=".87829" xlink:href="#path13336" transform="matrix(.2305 0 0 .2305 322.58 314.21)" height="1052.3622" width="744.09448" y="0" x="0"/>
<use id="use14664" opacity=".87829" xlink:href="#path13334" transform="matrix(.2305 0 0 .2305 324.37 311.67)" height="1052.3622" width="744.09448" y="0" x="0"/>
<use id="use14676" opacity=".87829" xlink:href="#path13346" transform="matrix(.2305 0 0 .2305 321.23 309.62)" height="1052.3622" width="744.09448" y="0" x="0"/>
<use id="use14694" opacity=".87829" xlink:href="#path13346" transform="matrix(.2305 0 0 .2305 322.48 313.19)" height="1052.3622" width="744.09448" y="0" x="0"/>
<use id="use14696" opacity=".87829" xlink:href="#path13344" transform="matrix(.2305 0 0 .2305 320.3 308.43)" height="1052.3622" width="744.09448" y="0" x="0"/>
<use id="use14702" opacity=".87829" xlink:href="#path13336" transform="matrix(.2305 0 0 .2305 322.12 310.04)" height="1052.3622" width="744.09448" y="0" x="0"/>
<use id="use14710" opacity=".87829" xlink:href="#path13326" transform="matrix(.2305 0 0 .2305 323.35 313.09)" height="1052.3622" width="744.09448" y="0" x="0"/>
<use id="use14712" opacity=".87829" xlink:href="#path13446" transform="matrix(.2305 0 0 .2305 320.83 310.04)" height="1052.3622" width="744.09448" y="0" x="0"/>
<use id="use14714" opacity=".87829" xlink:href="#path13350" transform="matrix(.2305 0 0 .2305 322.03 308.58)" height="1052.3622" width="744.09448" y="0" x="0"/>
<use id="use14736" opacity=".87829" xlink:href="#path13326" transform="matrix(.19359 0 0 .2669 326.96 281.98)" height="1052.3622" width="744.09448" y="0" x="0"/>
<use id="use14744" opacity=".87829" xlink:href="#path13340" transform="matrix(.2305 0 0 .2305 324.76 309.72)" height="1052.3622" width="744.09448" y="0" x="0"/>
<use id="use14778" opacity=".87829" xlink:href="#path13446" transform="matrix(.2305 0 0 .2305 321.16 310.97)" height="1052.3622" width="744.09448" y="0" x="0"/>
<use id="use16114" opacity=".87829" xlink:href="#path13346" transform="matrix(.2305 0 0 .2305 322.27 307.95)" height="1052.3622" width="744.09448" y="0" x="0"/>
<use id="use16124" opacity=".87829" xlink:href="#path13446" transform="matrix(.2305 0 0 .2305 320.48 307.76)" height="1052.3622" width="744.09448" y="0" x="0"/>
<use id="use16130" opacity=".87829" xlink:href="#path13340" transform="matrix(.2305 0 0 .2305 324.18 310.31)" height="1052.3622" width="744.09448" y="0" x="0"/>
<use id="use16132" opacity=".87829" xlink:href="#path13338" transform="matrix(.2305 0 0 .2305 323.9 307.95)" height="1052.3622" width="744.09448" y="0" x="0"/>
<use id="use16136" opacity=".87829" xlink:href="#path13334" transform="matrix(.2305 0 0 .2305 323.21 312.75)" height="1052.3622" width="744.09448" y="0" x="0"/>
<use id="use16140" opacity=".87829" xlink:href="#path13330" transform="matrix(.2305 0 0 .2305 324.68 311.28)" height="1052.3622" width="744.09448" y="0" x="0"/>
<use id="use16142" opacity=".87829" xlink:href="#path13326" transform="matrix(.2305 0 0 .2305 322.88 308.3)" height="1052.3622" width="744.09448" y="0" x="0"/>
<use id="use16148" opacity=".87829" xlink:href="#path13344" transform="matrix(.2305 0 0 .2305 320.27 311.43)" height="1052.3622" width="744.09448" y="0" x="0"/>
<use id="use16156" opacity=".87829" xlink:href="#path13336" transform="matrix(.2305 0 0 .2305 322.8 315.5)" height="1052.3622" width="744.09448" y="0" x="0"/>
<use id="use16158" opacity=".87829" xlink:href="#path13334" transform="matrix(.2305 0 0 .2305 323.9 312.32)" height="1052.3622" width="744.09448" y="0" x="0"/>
<use id="use16160" opacity=".87829" xlink:href="#path13332" transform="matrix(.2305 0 0 .2305 323.77 315.85)" height="1052.3622" width="744.09448" y="0" x="0"/>
<use id="use16202" opacity=".87829" xlink:href="#path13350" transform="matrix(.2305 0 0 .2305 320.8 314.03)" height="1052.3622" width="744.09448" y="0" x="0"/>
<use id="use16208" opacity=".87829" xlink:href="#path13340" transform="matrix(.2305 0 0 .2305 323.99 315.97)" height="1052.3622" width="744.09448" y="0" x="0"/>
<use id="use16218" opacity=".87829" xlink:href="#path13350" transform="matrix(.2305 0 0 .2305 320.76 316.58)" height="1052.3622" width="744.09448" y="0" x="0"/>
<use id="use16232" opacity=".87829" xlink:href="#path13332" transform="matrix(.2305 0 0 .2305 323.56 318.08)" height="1052.3622" width="744.09448" y="0" x="0"/>
</g>
<g stroke-width="0">
<path id="path8035" d="m524.35 220.52c0 103.6-88.111 183.64-197.56 197.02-9.8042 1.1979-16.11 7.3795-26.273 7.3795-77.837 0-133.45-34.428-173.55-89.481-23.588-32.38-50.282-73.11-50.282-114.92 0-67.202 35.603-125.9 90.447-162.56 37.283-24.921 83.457-38.66 133.38-41.839 69.238-4.4085 122.43 28.496 160.6 65.103 39.902 38.264 63.226 81.603 63.226 139.29z" fill="#fb8b00"/>
<path id="path8029" d="m527.77 220.52c0 105.19-89.457 186.45-200.57 200.03-9.954 1.2174-16.356 7.492-26.674 7.492-79.025 0-135.48-34.953-176.2-90.847-23.948-32.875-51.049-74.226-51.049-116.67 0-68.228 36.146-127.82 91.828-165.04 37.852-25.301 84.732-39.25 135.42-42.477 70.296-4.4756 124.3 28.931 163.06 66.097 40.511 38.848 64.192 82.849 64.192 141.42z" fill="#fb8b00"/>
<path id="path8018" d="m-86 260c0 58.798-47.632 104.22-106.8 111.81-5.3 0.68-8.71 4.19-14.2 4.19-42.078 0-72.139-19.538-93.818-50.782-12.75-18.38-27.18-41.49-27.18-65.22 0-38.139 19.246-71.451 48.894-92.256 20.16-14.14 45.12-21.94 72.11-23.74 37.429-2.5019 66.184 16.172 86.821 36.948 21.571 21.71 34.18 46.31 34.18 79.05z" transform="matrix(1.8019,0,0,1.7164,673.52,-225.75)" filter="url(#filter8037-1)" fill="#fffcd9"/>
</g>
<g stroke="#fcc627">
<path id="path7305" d="m127.42 197.85c69.936 39.758 96.184 35.268 146.28 34.221 9.1128-0.19021 7.7177-15.234 7.7177-15.234-19.9-24.51-75.78-101.97-101.97-125.35-19.28-17.205-84.096 88.13-52.03 106.36z" stroke-width="1.8331" fill="url(#radialGradient10979)"/>
<path id="path7317" d="m166.65 323.74c14.529 6.5792 83.936-56.766 118.7-79.568 6.3243-4.1481 5.1632-14.53-1.8864-16.984-55.459-19.305-166.17-33.889-164.44-23.377-6.9772 32.043 9.6343 102.73 47.621 119.93z" stroke-width="4.0079" fill="url(#linearGradient10971)"/>
<path id="path6787" d="m487.55 231.13c-10.193-13.492-108.69-14.55-152.3-13.469-7.9334 0.19765-13.37 11.375-6.7188 15.714 57.485 37.494 73.811 55.859 114.22 103.26 27.012-16.302 71.444-70.23 44.793-105.51z" stroke-width="1.7371" fill="url(#linearGradient10977)"/>
<path id="path7309" d="m429.97 337.91c7.3358-15.243-70.599-116.18-110.75-99.071-66.446 28.315-8.7081-3.8391-9.1179 4.1043-3.2236 62.492-25.084 86.691-12.464 139.57 34.857 16.147 120.41-19.841 132.33-44.604z" stroke-width="1.7371" fill="url(#linearGradient10975)"/>
<path id="path7311" d="m187.61 93.188c11.354 13.391 58.101 69.498 91.352 114.47 5.4273 7.3399 16.205-5.302 16.205-5.302 3.2255-31.436 20.647-93.701 2.5538-150.84-33.089-10.815-128 20.58-110.11 41.673z" stroke-width="1.8331" fill="url(#linearGradient10973)"/>
<path id="path7319" d="m446.6 107.48c-16.665-5.4599-74.835 67.383-117.69 93.395-7.7968 4.7321 0.91563 17.061 0.91563 17.061 29.46 11.259 95.548 6.7098 155.29 3.9817 18.985-29.236 5.0559-100.16-38.516-114.44z" stroke-width="1.8332" fill="url(#linearGradient10969)"/>
<path id="path7325" d="m308.75 49.155c-15.641 6.3763-7.965 89.313-2.5334 140.79 0.83504 7.9101 6.3361 14.188 13.405 10.572 55.61-28.45 75.87-64.12 115.25-101.52-8.72-30.366-85.22-66.517-126.12-49.845z" stroke-width="1.7371" fill="url(#linearGradient10967)"/>
<path id="path7327" d="m284.61 382.76c15.636-7.9502 7.6183-80.714 19.574-129.48 2.1749-8.8721-12.683-11.415-12.683-11.415-28.775 12.918-83.496 48.191-123.82 92.464 11.564 22.465 76.046 69.22 116.93 48.434z" stroke-width="1.8331" fill="url(#linearGradient10965)"/>
<path id="path7333" d="m-272.99 884.06c20.415 24.309 55.034 70.008 64.071 64.454l2.5816-88.234c3.4063 29.519-5.995 97.46 10.326 88.234 32.223-16.903 44.175-38.874 66.199-58.326l-62.326 64.78 88.362 3.5816-87.071 1.5816c30.793 16.052 42.097 39.9 60.908 60.745-22.596-20.022-44.169-59.662-72.525-54.291 0.71654-0.74033-7.0689 87.101-4.9048 84.455 3.7161-4.5437 7.5118-78.507-4.1306-83.164l-60.525 41.199c19.508-18.035 58.254-36.071 57.943-54.106l-95.656-0.42218 93.912 0.84062z" transform="matrix(1.7351,0,0,1.7391,659.69,-1443.1)" filter="url(#filter7748-2)" stroke-width="1.2" fill="#fcfcbe"/>
</g>
<g stroke-width="0" fill="#f44800">
<path id="path7375" opacity=".54146" d="m182.77 289.2c-18.079 10.363-27.362 34.992-35.496 61.482l19.61-31.147z" transform="matrix(1.3864 0 0 .7899 37.809 23.295)" filter="url(#filter7408-1)"/>
<path id="path7412" opacity=".54146" d="m182.77 289.2c-18.079 10.363-27.362 34.992-35.496 61.482l19.61-31.147z" transform="matrix(1.3392 .35966 -.20397 .76298 222.85 -110.5)" filter="url(#filter8345-8)"/>
<path id="path7414" opacity=".54146" d="m182.77 289.2c-18.079 10.363-27.362 34.992-35.496 61.482l19.61-31.147z" transform="matrix(1.3392 -.35966 .20397 .76298 69.934 -32.208)" filter="url(#filter8341-3)"/>
<path id="path7416" opacity=".54146" d="m182.77 289.2c-18.079 10.363-27.362 34.992-35.496 61.482l19.61-31.147z" transform="matrix(.69322 -1.2034 .6825 .39495 -48.334 217.31)" filter="url(#filter8337-6)"/>
<path id="path7418" opacity=".54146" d="m182.77 289.2c-18.079 10.363-27.362 34.992-35.496 61.482l19.61-31.147z" transform="matrix(0 -.73063 .75942 0 -38.085 281.17)" filter="url(#filter8333-5)"/>
<path id="path7420" opacity=".54146" d="m182.77 289.2c-18.079 10.363-27.362 34.992-35.496 61.482l19.61-31.147z" transform="matrix(-.36448 -.63275 .65768 -.38058 47.893 460.86)" filter="url(#filter8329-9)"/>
<path id="path7422" opacity=".54146" d="m182.77 289.2c-18.079 10.363-27.362 34.992-35.496 61.482l19.61-31.147z" transform="matrix(-.63129 -.36532 .37971 -.65919 200.41 530.64)" filter="url(#filter8075-67)"/>
<path id="path7424" opacity=".54146" d="m182.77 289.2c-18.079 10.363-27.362 34.992-35.496 61.482l19.61-31.147z" transform="matrix(-1.0764 .44839 -1.1214 -.46713 904.79 374.18)" filter="url(#filter7408-1)"/>
<path id="path7426" opacity=".54146" d="m182.77 289.2c-18.079 10.363-27.362 34.992-35.496 61.482l19.61-31.147z" transform="matrix(-.51545 .51663 -.53699 -.53823 597.82 389.54)" filter="url(#filter7408-1)"/>
<path id="path7428" opacity=".54146" d="m182.77 289.2c-18.079 10.363-27.362 34.992-35.496 61.482l19.61-31.147z" transform="matrix(-2.5798 .51663 -2.6876 -.53823 1694.1 351.38)" filter="url(#filter7408-1)"/>
</g>
<ellipse id="path7430" rx="5.8085" transform="matrix(-.072062 .51612 -.64479 .83669 335.19 306.87)" ry="14.844" filter="url(#filter8397-8)" cy="165.7" cx="-240.73" stroke-width="0" fill="#fff"/>
<path id="path7718" opacity=".71220" d="m-204 242-4-58 1-28v-2z" transform="matrix(1.7351,0,0,1.7442,659.69,-222.42)" filter="url(#filter7732-0)" stroke="#fcc627" stroke-width=".99855" fill="url(#radialGradient10963)"/>
<ellipse id="path7910" rx="5.8085" transform="matrix(.46543 .1873 .45478 .57135 396.04 284.73)" ry="14.844" filter="url(#filter8425-1)" cy="165.7" cx="-240.73" stroke-width="0" fill="#fff"/>
<path id="path7912" opacity=".073171" d="m-233 193a10 17 0 0 1 -3.2481 12.54 10 17 0 0 1 -7.6343 4.3937l0.88-16.93z" transform="matrix(1.1638 1.5673 .2198 1.1665 507.07 249.71)" filter="url(#filter8321-8)" stroke-width="0" fill="#b65454"/>
<g stroke="#fcc627" stroke-width=".52388" fill="none">
<path id="path7916" d="m-62.619 1075.7 6.9285 44.563" transform="matrix(1.676 -.45011 .44908 1.6799 -138.32 -1757.3)" filter="url(#filter7930-20)"/>
<path id="path7918" d="m-41.741 1072c0.92381 2.3767-7.0204 56.614-7.0204 56.614" transform="matrix(1.676 -.45011 .44908 1.6799 -138.32 -1757.3)" filter="url(#filter7926-0)"/>
<path id="path7920" d="m-67.238 1087.6c11.551 23.272 12.08 36.77 15.253 52.611" transform="matrix(1.676 -.45011 .44908 1.6799 -166.08 -1781.6)" filter="url(#filter7922-8)"/>
</g>
<g stroke-width="0" fill="#f44800">
<ellipse id="path7934" opacity=".51220" rx="21" transform="matrix(.15228 .097458 -.57369 1.0909 584.43 -298.52)" ry="24" filter="url(#filter7966-0)" cy="397" cx="-36"/>
<ellipse id="path7936" opacity=".51220" rx="21" transform="matrix(.086066 .040953 -.13575 .89969 384.81 -235.3)" ry="24" filter="url(#filter7962-0)" cy="397" cx="-36"/>
<ellipse id="path7938" opacity=".51220" rx="21" transform="matrix(.12111 .071197 -.19103 1.5641 405.27 -475.28)" ry="24" filter="url(#filter7958-7)" cy="397" cx="-36"/>
<ellipse id="path7940" opacity=".51220" rx="21" transform="matrix(.089197 .15485 -.90944 .52627 808.56 -42.901)" ry="24" filter="url(#filter8317-6)" cy="397" cx="-36"/>
<ellipse id="path7942" opacity=".51220" rx="21" transform="matrix(.089197 .15485 -.90944 .52627 778.75 -48.235)" ry="24" filter="url(#filter8313-2)" cy="397" cx="-36"/>
<ellipse id="path7944" opacity=".51220" rx="21" transform="matrix(.089197 .15485 -.90944 .52627 779.86 -16.387)" ry="24" filter="url(#filter8309-2)" cy="397" cx="-36"/>
<ellipse id="path7970" opacity=".51220" rx="21" transform="matrix(.17232 -.046278 -.27179 -1.0167 444.6 677.63)" ry="24" filter="url(#filter8421-9)" cy="397" cx="-36"/>
<ellipse id="path7972" opacity=".51220" rx="21" transform="matrix(.04142 -.039673 -.065332 -.87157 346.81 660.17)" ry="24" filter="url(#filter8417-9)" cy="397" cx="-36"/>
<ellipse id="path7974" opacity=".51220" rx="21" transform="matrix(.17232 -.046278 -.27179 -1.0167 452.04 734.06)" ry="24" filter="url(#filter7958-7)" cy="397" cx="-36"/>
<ellipse id="path7976" opacity=".51220" rx="21" transform="matrix(-.15449 -.089402 -.52507 .91153 465.96 -51.829)" ry="24" filter="url(#filter7966-0)" cy="397" cx="-36"/>
<ellipse id="path7978" opacity=".51220" rx="21" transform="matrix(-.096425 -.090991 -.32771 .92773 384.09 -21.323)" ry="24" filter="url(#filter8393-4)" cy="397" cx="-36"/>
<ellipse id="path7980" opacity=".51220" rx="21" transform="matrix(-.15449 -.089402 -.52507 .91153 422.73 -21.769)" ry="24" filter="url(#filter8389-0)" cy="397" cx="-36"/>
<ellipse id="path7982" opacity=".51220" rx="21" transform="matrix(-.11857 -.1027 -.40298 1.0471 430.53 -105.62)" ry="24" filter="url(#filter8117-7)" cy="397" cx="-36"/>
<ellipse id="path7986" opacity=".18049" rx="21" transform="matrix(-.17644 -.13852 -1.0386 .8154 615.7 .29371)" ry="24" filter="url(#filter8385-1)" cy="397" cx="-36"/>
<ellipse id="path7988" opacity=".51220" rx="21" transform="matrix(-.046172 -.16741 -1.0143 .38891 646.87 86.491)" ry="24" filter="url(#filter8071-2)" cy="397" cx="-36"/>
<ellipse id="path7990" opacity=".51220" rx="21" transform="matrix(-.055873 -.093044 -1.2275 .21615 656.9 163.94)" ry="24" filter="url(#filter8067-4)" cy="397" cx="-36"/>
<ellipse id="path7992" opacity=".51220" rx="21" transform="matrix(-.0013693 .085081 -1.0802 -.055121 588.78 263.81)" ry="24" filter="url(#filter8063-3)" cy="397" cx="-36"/>
</g>
<g stroke-width="0">
<path id="path8002" opacity=".043902" d="m-231.23 956.28c-2.8656-1.5848-75.856-26.442-75.856-26.442s57.895 15.819 50.066 12.179c-7.829-3.6405-43.416-15.395-43.416-15.395s71.736 21.751 58.944 16.055c-12.792-5.6962-43.19-26.644-43.19-26.644l43.265 22.894-20.937-32.95z" transform="matrix(1.7351,0,0,1.7391,659.69,-1443.1)" filter="url(#filter8305-5)" fill="#980101"/>
<path id="path8004" opacity=".092683" d="m-220.47 931.1c-1.4142-2.8284-45.962-60.104-45.962-60.104s37.477 41.719 33.234 34.648c-4.2426-7.0711-26.163-34.648-26.163-34.648s45.255 53.74 38.184 42.426c-7.0711-11.314-19.799-45.255-19.799-45.255l21.92 41.719 1.4142-41.012z" transform="matrix(1.7351,0,0,1.7391,659.69,-1443.1)" filter="url(#filter8006-2)" fill="#d40000"/>
<path id="path8016" opacity=".26829" d="m-216.86 1011.6c-1.4142-2.8284-45.962-60.104-45.962-60.104s37.477 41.719 33.234 34.648c-4.2426-7.0711-26.163-34.648-26.163-34.648s45.255 53.74 38.184 42.426c-7.0711-11.314-19.799-45.255-19.799-45.255l21.92 41.719 1.4142-41.012z" transform="matrix(0,-1.7391,1.7351,0,-1465.6,-149.93)" filter="url(#filter8006-2)" fill="url(#linearGradient10961)"/>
</g>
<g stroke="#feffff" fill="#fff">
<path id="path8051" d="m-225.62 902.29 1.0458-3.6588 2.9603 0.8858z" transform="matrix(1.7351,0,0,1.7391,659.69,-1443.1)" filter="url(#filter8301-0)" stroke-width=".18125px"/>
<path id="path8053" d="m-168.49 904.92 2.5444-8.9014 7.202 2.155z" transform="matrix(1.7351,0,0,1.7391,659.69,-1443.1)" filter="url(#filter8297-3)" stroke-width=".44096px"/>
<path id="path8055" d="m-149.36 968.33 8.9014 2.5443-2.155 7.202z" transform="matrix(1.7351,0,0,1.7391,649.36,-1365.7)" filter="url(#filter8293-7)" stroke-width=".44096px"/>
<path id="path8057" d="m-246.68 977.75-17.565-0.0514-7.7451 0.0757z" transform="matrix(1.7351,0,0,1.7391,659.69,-1443.1)" filter="url(#filter8059-5)" stroke-width=".069476px"/>
</g>
<g stroke-width="0">
<ellipse id="path8087" opacity=".19024" rx="3.5" transform="matrix(5.4536,3.1559,-2.456,4.2636,1513.6,-1540.1)" ry="7" filter="url(#filter8101-85)" cy="427" cx="-1.5" fill="url(#linearGradient4414)"/>
<ellipse id="path8097" opacity=".64390" rx="3.5" transform="matrix(5.6378,3.8145,-2.5389,5.1535,1255.5,-2050)" ry="7" filter="url(#filter8289-3)" cy="427" cx="-1.5" fill="url(#linearGradient4416)"/>
<ellipse id="path12111" opacity=".51220" rx="21" transform="matrix(-.07805 -.075412 -1.1297 .52648 626.32 59.448)" ry="24" filter="url(#filter8067-4)" cy="397" cx="-36" fill="#f44800"/>
</g>
<g stroke-width="0" fill="url(#linearGradient4414)">
<ellipse id="path12113" opacity=".19024" rx="3.5" transform="matrix(6.0878,-1.6247,1.2782,4.7515,-76.111,-1860.1)" ry="7" filter="url(#filter8101-85)" cy="427" cx="-1.5"/>
<ellipse id="path12117" opacity=".19024" rx="3.5" transform="matrix(1.6368,-6.0846,4.754,1.2688,-1658.6,-458.44)" ry="7" filter="url(#filter8101-85)" cy="427" cx="-1.5"/>
<ellipse id="path12121" opacity=".19024" rx="3.5" transform="matrix(1.6368,-6.0846,4.754,1.2688,-1790.2,-202.86)" ry="7" filter="url(#filter8101-85)" cy="427" cx="-1.5"/>
<ellipse id="path12125" opacity=".19024" rx="3.5" transform="matrix(6.0219,-3.7063,2.7181,5.0187,-989.86,-1883.1)" ry="7" filter="url(#filter8101-85)" cy="427" cx="-1.5"/>
</g>
<ellipse id="path12129" opacity=".64390" rx="3.5" transform="matrix(-.4846 6.7897 -5.7325 .37799 2693.9 -72.195)" ry="7" filter="url(#filter8289-3)" cy="427" cx="-1.5" stroke-width="0" fill="url(#linearGradient4416)"/>
<path id="path7752" opacity=".23415" d="m-213 245 6 7-9 11 10-9 17 4z" transform="matrix(1.7351,0,0,1.7391,659.69,-221.64)" filter="url(#filter8325-3)" stroke-width="0" fill="#ce5902"/>
</g>
</g>
</svg>
